<svg xmlns="http://www.w3.org/2000/svg" viewBox="0 0 100 100" width="100" height="100">
  <defs>
    <linearGradient id="iconGrad" x1="0%" y1="0%" x2="100%" y2="100%">
      <stop offset="0%" style="stop-color:#14b8a6;stop-opacity:1" />
      <stop offset="100%" style="stop-color:#2dd4bf;stop-opacity:1" />
    </linearGradient>
  </defs>
  
  <!-- Ícono de herramienta centrado -->
  <g transform="translate(25, 15)">
    <path d="M 15 5 L 35 5 L 40 10 L 40 18 L 35 23 L 30 23 L 30 43 L 40 53 L 40 61 L 35 66 L 15 66 L 10 61 L 10 53 L 20 43 L 20 23 L 15 23 L 10 18 L 10 10 Z" 
          fill="url(#iconGrad)" 
          stroke="#2dd4bf" 
          stroke-width="1"/>
    
    <!-- Detalles tecnológicos -->
    <circle cx="25" cy="14" r="2.5" fill="#0a4d4e"/>
    <circle cx="25" cy="57" r="2.5" fill="#0a4d4e"/>
    <line x1="20" y1="35" x2="30" y2="35" stroke="#0a4d4e" stroke-width="2.5"/>
    
    <!-- Efecto de brillo -->
    <path d="M 17 8 L 20 11 L 17 14" 
          fill="none" 
          stroke="#2dd4bf" 
          stroke-width="1.5" 
          opacity="0.7"/>
  </g>
</svg>
